<?xml version="1.0" standalone="no"?>
<svg xmlns:xlink="http://www.w3.org/1999/xlink" id="wave" style="transform:rotate(0deg); transition: 0.3s" viewBox="0 0 1440 150" version="1.1" xmlns="http://www.w3.org/2000/svg"><defs><linearGradient id="sw-gradient-0" x1="0" x2="0" y1="1" y2="0"><stop stop-color="rgba(206, 201, 240, 1)" offset="0%"/><stop stop-color="rgba(206, 201, 240, 1)" offset="100%"/></linearGradient></defs><path style="transform:translate(0, 0px); opacity:1" fill="url(#sw-gradient-0)" d="M0,75L40,75C80,75,160,75,240,85C320,95,400,115,480,107.5C560,100,640,65,720,47.5C800,30,880,30,960,47.5C1040,65,1120,100,1200,110C1280,120,1360,105,1440,87.5C1520,70,1600,50,1680,47.5C1760,45,1840,60,1920,65C2000,70,2080,65,2160,55C2240,45,2320,30,2400,25C2480,20,2560,25,2640,25C2720,25,2800,20,2880,20C2960,20,3040,25,3120,22.5C3200,20,3280,10,3360,27.5C3440,45,3520,90,3600,105C3680,120,3760,105,3840,105C3920,105,4000,120,4080,112.5C4160,105,4240,75,4320,72.5C4400,70,4480,95,4560,107.5C4640,120,4720,120,4800,105C4880,90,4960,60,5040,45C5120,30,5200,30,5280,40C5360,50,5440,70,5520,82.5C5600,95,5680,100,5720,102.5L5760,105L5760,150L5720,150C5680,150,5600,150,5520,150C5440,150,5360,150,5280,150C5200,150,5120,150,5040,150C4960,150,4880,150,4800,150C4720,150,4640,150,4560,150C4480,150,4400,150,4320,150C4240,150,4160,150,4080,150C4000,150,3920,150,3840,150C3760,150,3680,150,3600,150C3520,150,3440,150,3360,150C3280,150,3200,150,3120,150C3040,150,2960,150,2880,150C2800,150,2720,150,2640,150C2560,150,2480,150,2400,150C2320,150,2240,150,2160,150C2080,150,2000,150,1920,150C1840,150,1760,150,1680,150C1600,150,1520,150,1440,150C1360,150,1280,150,1200,150C1120,150,1040,150,960,150C880,150,800,150,720,150C640,150,560,150,480,150C400,150,320,150,240,150C160,150,80,150,40,150L0,150Z"/></svg>